<svg width="336" height="67" viewBox="0 0 336 67" fill="none" xmlns="http://www.w3.org/2000/svg">
<path d="M17.9 6.67572e-06H2.20002C1.00002 6.67572e-06 2.45273e-05 1.00001 2.45273e-05 2.20001V64.5C2.45273e-05 65.7 1.00002 66.7 2.20002 66.7H16.8C18.5 66.7 20.3 66.7 22 66.3C26.9 65.2 30.6 62.1 32.9 58.4C34.4 56.2 35.1 54 35.1 50.5V42.7C35.1 37.4 32.4 34 28.9 31.9C28.7 31.8 28.7 31.4 28.9 31.3C32.5 29.5 35.1 25.9 35.1 20.8V15.7C35.1 11 33.9 8.20001 31.5 5.80001C28.3 2.80001 24 6.67572e-06 17.9 6.67572e-06ZM17.2 27.4H12.9C11.7 27.4 10.7 26.4 10.7 25.2V11.2C10.7 10 11.7 9.00001 12.9 9.00001H16.9L18.6 9.10001C19.4 9.30001 20.1 9.40001 20.8 9.80001C22.9 11 24.4 12.4 24.4 15.7V19.8C24.4 22.8 23.5 25.3 21.4 26.4L19.6 27.1C19.6 27.2 19.3 27.2 19.3 27.3C18.6 27.4 17.9 27.4 17.2 27.4ZM17 57.2H12.9C11.7 57.2 10.7 56.2 10.7 55V38C10.7 36.8 11.7 35.8 12.9 35.8H16.9L18.6 35.9C18.7 35.9 19.1 36 19.1 36C19.8 36.1 20.4 36.3 20.9 36.6C23 37.7 24.4 39.5 24.4 42.7V50.5L24.3 51.8C24.3 51.9 24.2 52.5 24.1 52.6L23.7 53.7C23.6 53.7 23.5 54 23.5 54C22.2 55.9 20.1 57.2 17 57.2ZM214.002 66.7H220.502C221.702 66.7 222.702 65.7 222.702 64.5V40.3C222.702 39.1 223.702 38.1 224.902 38.1H228.002C228.802 38.1 229.802 38.8 230.002 39.6L239.302 65.2C239.502 66 240.502 66.7 241.302 66.7H248.102C249.802 66.7 250.802 65.3 250.202 63.7L240.502 37.9C240.102 37 240.702 35.6 241.502 35.1C246.302 31.8 248.702 27.5 248.702 22V15.8C248.702 6.60001 240.402 6.67572e-06 230.902 6.67572e-06H214.002C212.802 6.67572e-06 211.802 1.00001 211.802 2.20001V64.5C211.802 65.7 212.802 66.7 214.002 66.7ZM230.302 29.7H224.902C223.702 29.7 222.702 28.7 222.702 27.5V11.1C222.702 9.90001 223.702 8.90001 224.902 8.90001H230.402C235.002 8.90001 237.802 11.5 237.802 15.8V22C237.802 26 235.702 29.7 230.302 29.7Z" fill="#FEAFBE"/>
<path d="M44.7617 66.7H51.6617C52.6617 66.7 53.6617 65.9 53.8617 65L56.1617 54.1C56.3617 53.2 57.3617 52.4 58.3617 52.4H68.8617C69.8617 52.4 70.8617 53.2 71.0617 54.1L73.3617 65C73.5617 65.9 74.5617 66.7 75.5617 66.7H82.5617C84.0617 66.7 85.0617 65.4 84.6617 64L68.7617 1.70001C68.5617 0.800008 67.5617 6.67572e-06 66.6617 6.67572e-06H60.6617C59.7617 6.67572e-06 58.7617 0.800008 58.5617 1.70001L42.6617 64C42.2617 65.4 43.2617 66.7 44.7617 66.7ZM59.0617 40.8L61.4617 29.4C61.9617 27.1 65.3617 27.1 65.7617 29.4L68.1617 40.8C68.4617 42.3 67.5617 43.5 66.0617 43.5H61.1617C59.7617 43.5 58.7617 42.3 59.0617 40.8ZM261.287 66.7H267.587C268.787 66.7 269.787 65.7 269.787 64.5V2.20001C269.787 1.00001 268.787 6.67572e-06 267.587 6.67572e-06H261.287C260.087 6.67572e-06 259.087 1.00001 259.087 2.20001V64.5C259.087 65.7 260.087 66.7 261.287 66.7Z" fill="#B3DFD3"/>
<path d="M124.285 64.5V59.3C124.285 58.1 123.285 57.1 122.085 57.1H104.985C103.785 57.1 102.785 56.1 102.785 54.9V2.20001C102.785 1.00001 101.785 6.67572e-06 100.585 6.67572e-06H94.1852C92.9852 6.67572e-06 91.9852 1.00001 91.9852 2.20001V64.5C91.9852 65.7 92.9852 66.7 94.1852 66.7H122.085C123.285 66.7 124.285 65.7 124.285 64.5ZM307.723 66.7H314.123C315.323 66.7 316.323 65.7 316.323 64.5V2.20001C316.323 1.00001 315.323 6.67572e-06 314.123 6.67572e-06H307.723C306.523 6.67572e-06 305.523 1.00001 305.523 2.20001V29.4C305.523 31.8 302.223 32.4 301.323 30.3L289.223 1.40001C288.923 0.70001 287.923 6.67572e-06 287.123 6.67572e-06H280.623C279.423 6.67572e-06 278.423 1.00001 278.423 2.20001V64.5C278.423 65.7 279.423 66.7 280.623 66.7H287.023C288.223 66.7 289.223 65.7 289.223 64.5V37.1C289.223 34.8 292.523 34.1 293.423 36.3L305.623 65.4C305.923 66 306.923 66.7 307.723 66.7Z" fill="#A45A49"/>
<path d="M164.227 64.5V59.3C164.227 58.1 163.227 57.1 162.027 57.1H144.927C143.727 57.1 142.727 56.1 142.727 54.9V2.20001C142.727 1.00001 141.727 6.67572e-06 140.527 6.67572e-06H134.127C132.927 6.67572e-06 131.927 1.00001 131.927 2.20001V64.5C131.927 65.7 132.927 66.7 134.127 66.7H162.027C163.227 66.7 164.227 65.7 164.227 64.5ZM327.107 66.7H333.407C334.607 66.7 335.607 65.7 335.607 64.5V2.20001C335.607 1.00001 334.607 6.67572e-06 333.407 6.67572e-06H327.107C325.907 6.67572e-06 324.907 1.00001 324.907 2.20001V64.5C324.907 65.7 325.907 66.7 327.107 66.7Z" fill="#EFC764"/>
<path d="M202.268 57.1H184.868C183.668 57.1 182.668 56.1 182.668 54.9V39.7C182.668 38.5 183.668 37.5 184.868 37.5H199.568C200.768 37.5 201.768 36.5 201.768 35.3V30.7C201.768 29.5 200.768 28.5 199.568 28.5H184.868C183.668 28.5 182.668 27.5 182.668 26.3V11C182.668 9.80001 183.668 8.80001 184.868 8.80001H202.268C203.468 8.80001 204.468 7.80001 204.468 6.60001V2.20001C204.468 1.00001 203.468 6.67572e-06 202.268 6.67572e-06H174.168C172.968 6.67572e-06 171.968 1.00001 171.968 2.20001V64.5C171.968 65.7 172.968 66.7 174.168 66.7H202.268C203.468 66.7 204.468 65.7 204.468 64.5V59.3C204.468 58.1 203.468 57.1 202.268 57.1Z" fill="#97D4D9"/>
</svg>
